<mxfile host="app.diagrams.net" agent="Mozilla/5.0 (Windows NT 10.0; Win64; x64) AppleWebKit/537.36 (KHTML, like Gecko) Chrome/131.0.0.0 Safari/537.36" version="26.0.6">
  <diagram name="Page-1" id="peW4sJ3T0pTEGk9BL7wX">
    <mxGraphModel dx="1050" dy="557" grid="1" gridSize="10" guides="1" tooltips="1" connect="1" arrows="1" fold="1" page="1" pageScale="1" pageWidth="827" pageHeight="1169" background="light-dark(#C8D1DF,#C8D1DF)" math="0" shadow="0">
      <root>
        <mxCell id="0" />
        <mxCell id="1" parent="0" />
        <mxCell id="tlIFWg7Dsrv5_ZQrjvh7-1" value="Actor" style="shape=umlActor;verticalLabelPosition=bottom;verticalAlign=top;html=1;fillColor=#1ba1e2;strokeColor=#006EAF;fontColor=#ffffff;labelBackgroundColor=default;labelBorderColor=default;noLabel=1;" vertex="1" parent="1">
          <mxGeometry x="70" y="170" width="50" height="100" as="geometry" />
        </mxCell>
        <mxCell id="tlIFWg7Dsrv5_ZQrjvh7-6" value="" style="endArrow=classic;html=1;rounded=0;fontFamily=Helvetica;fontSize=12;fontColor=#ffffff;labelBorderColor=default;labelBackgroundColor=default;" edge="1" parent="1" source="tlIFWg7Dsrv5_ZQrjvh7-1">
          <mxGeometry width="50" height="50" relative="1" as="geometry">
            <mxPoint x="360" y="260" as="sourcePoint" />
            <mxPoint x="350" y="170" as="targetPoint" />
          </mxGeometry>
        </mxCell>
        <mxCell id="tlIFWg7Dsrv5_ZQrjvh7-7" value="" style="ellipse;whiteSpace=wrap;html=1;aspect=fixed;strokeColor=#6F0000;align=center;verticalAlign=top;fontFamily=Helvetica;fontSize=12;fontColor=light-dark(#FFFFFF,#FFFFFF);labelBorderColor=default;labelBackgroundColor=light-dark(#FFFFFF,#FFFFFF);fillColor=light-dark(#A20025,#FFFFFF);" vertex="1" parent="1">
          <mxGeometry x="350" y="90" width="140" height="140" as="geometry" />
        </mxCell>
        <mxCell id="tlIFWg7Dsrv5_ZQrjvh7-9" value="&lt;span&gt;&lt;font style=&quot;color: light-dark(rgb(0, 0, 0), rgb(0, 0, 0));&quot;&gt;&lt;b style=&quot;line-height: 200%;&quot;&gt;Utilisateur&lt;/b&gt;&lt;/font&gt;&lt;/span&gt;" style="text;whiteSpace=wrap;html=1;fontFamily=Helvetica;fontSize=12;fontColor=light-dark(#FFFFFF,#FFFFFF);labelBorderColor=default;labelBackgroundColor=light-dark(#FFFFFF,#1A1A1A);align=left;" vertex="1" parent="1">
          <mxGeometry x="70" y="270" width="120" height="60" as="geometry" />
        </mxCell>
        <mxCell id="tlIFWg7Dsrv5_ZQrjvh7-10" value="" style="ellipse;whiteSpace=wrap;html=1;aspect=fixed;strokeColor=#6F0000;align=center;verticalAlign=top;fontFamily=Helvetica;fontSize=12;fontColor=light-dark(#FFFFFF,#FFFFFF);labelBorderColor=default;labelBackgroundColor=light-dark(#FFFFFF,#FFFFFF);fillColor=light-dark(#A20025,#FFFFFF);" vertex="1" parent="1">
          <mxGeometry x="350" y="250" width="140" height="140" as="geometry" />
        </mxCell>
        <mxCell id="tlIFWg7Dsrv5_ZQrjvh7-11" value="" style="endArrow=classic;html=1;rounded=0;fontFamily=Helvetica;fontSize=12;fontColor=#ffffff;labelBorderColor=default;labelBackgroundColor=default;entryX=-0.009;entryY=0.408;entryDx=0;entryDy=0;entryPerimeter=0;" edge="1" parent="1" source="tlIFWg7Dsrv5_ZQrjvh7-1" target="tlIFWg7Dsrv5_ZQrjvh7-10">
          <mxGeometry width="50" height="50" relative="1" as="geometry">
            <mxPoint x="130" y="225" as="sourcePoint" />
            <mxPoint x="360" y="180" as="targetPoint" />
          </mxGeometry>
        </mxCell>
        <mxCell id="tlIFWg7Dsrv5_ZQrjvh7-12" value="&lt;span&gt;Scanner le network&lt;/span&gt;" style="text;strokeColor=none;align=center;fillColor=none;html=1;verticalAlign=middle;whiteSpace=wrap;rounded=0;fontFamily=Helvetica;fontSize=12;fontColor=#ffffff;labelBorderColor=default;labelBackgroundColor=light-dark(#FFFFFF,#FFFFFF);" vertex="1" parent="1">
          <mxGeometry x="362" y="140" width="116" height="40" as="geometry" />
        </mxCell>
        <mxCell id="tlIFWg7Dsrv5_ZQrjvh7-13" value="&lt;span&gt;Prédire la Vulnérabilité&lt;/span&gt;" style="text;strokeColor=none;align=center;fillColor=none;html=1;verticalAlign=middle;whiteSpace=wrap;rounded=0;fontFamily=Helvetica;fontSize=12;fontColor=#ffffff;labelBorderColor=default;labelBackgroundColor=light-dark(#FFFFFF,#FFFFFF);" vertex="1" parent="1">
          <mxGeometry x="362" y="300" width="116" height="40" as="geometry" />
        </mxCell>
      </root>
    </mxGraphModel>
  </diagram>
</mxfile>
